<svg width="70" height="66" viewBox="0 0 70 66" fill="none" xmlns="http://www.w3.org/2000/svg">
<path d="M36.7108 38.7886L39.6692 41.0595L48.8613 55.6247L47.7475 56.3311L44.4059 58.4492L43.292 59.1557L36.2368 48.1361L34.3345 45.1637" stroke="#777777" stroke-width="2" stroke-linecap="round" stroke-linejoin="round"/>
<path d="M31.8489 38.8105L29.8852 35.7061L20.1294 20.1374L23.471 18.0193L32.2468 32.037L34.2731 35.2416" stroke="#777777" stroke-width="2" stroke-linecap="round" stroke-linejoin="round"/>
<path d="M36.3082 6.04171C34.0182 4.92931 31.5009 4.35875 28.9527 4.37459C26.4046 4.39043 23.8946 4.99223 21.6188 6.13301C17.4322 8.2038 13.4964 10.7429 9.88786 13.7011L11.524 16.2572L9.21942 17.6472L8.06602 15.8454C7.32134 15.6928 6.54623 15.8349 5.90501 16.2414C5.26378 16.648 4.80686 17.2871 4.6311 18.0233L9.36249 25.4147C10.0926 25.4583 10.8179 25.2712 11.4348 24.8801C12.0517 24.489 12.5286 23.9139 12.7974 23.2369L11.5847 21.3425L13.8772 19.9336L15.7426 22.8476L27.5334 15.3724L24.1622 10.106C24.1622 10.106 32.0527 5.1028 36.3082 6.04171Z" stroke="#777777" stroke-width="2" stroke-linecap="round" stroke-linejoin="round"/>
<path d="M46.0005 5.7395L40.1456 14.8867L51.9351 22.3621C51.9351 22.3621 59.8778 24.3543 64.1407 25.2385L57.8494 13.1228L46.0005 5.7395Z" stroke="#777777" stroke-width="2" stroke-linecap="round" stroke-linejoin="round"/>
<path d="M34.273 35.2416L45.1942 18.0193L48.5358 20.1374L35.5232 40.661L34.6009 44.753L25.2221 59.1996L24.1083 58.4932L20.7667 56.3738L19.6528 55.6686L28.9383 41.1621L32.1804 38.5428L34.273 35.2416Z" stroke="#777777" stroke-width="2" stroke-linecap="round" stroke-linejoin="round"/>
</svg>
