<svg width="51" height="65" viewBox="0 0 51 65" fill="none" xmlns="http://www.w3.org/2000/svg">
<path d="M49.6579 64.4211H30.8685C30.1263 64.4211 29.5264 63.8198 29.5264 63.0789V1.34211C29.5264 0.601263 30.1263 0 30.8685 0H49.6579C50.4001 0 51.0001 0.601263 51.0001 1.34211V63.0789C51.0001 63.8198 50.4001 64.4211 49.6579 64.4211ZM32.2106 61.7368H48.3158V2.68421H32.2106V61.7368Z" fill="#777777"/>
<path d="M37.5789 10.7368H30.8684V13.421H37.5789V10.7368Z" fill="#777777"/>
<path d="M37.5789 18.7896H30.8684V21.4738H37.5789V18.7896Z" fill="#777777"/>
<path d="M37.5789 26.842H30.8684V29.5263H37.5789V26.842Z" fill="#777777"/>
<path d="M37.5789 34.8948H30.8684V37.579H37.5789V34.8948Z" fill="#777777"/>
<path d="M37.5789 42.9473H30.8684V45.6315H37.5789V42.9473Z" fill="#777777"/>
<path d="M37.5789 51H30.8684V53.6842H37.5789V51Z" fill="#777777"/>
<path d="M12.0789 61.7368H6.71053C3.01034 61.7368 0 58.7264 0 55.0262V16.1052C0 15.8408 0.0791845 15.5804 0.225474 15.3603L8.27811 3.28137C8.77603 2.53381 10.0134 2.53381 10.5114 3.28137L18.564 15.3603C18.7103 15.5804 18.7895 15.8408 18.7895 16.1052V55.0262C18.7895 58.7264 15.7791 61.7368 12.0789 61.7368ZM2.68421 16.5118V55.0262C2.68421 57.2461 4.49068 59.0526 6.71053 59.0526H12.0789C14.2988 59.0526 16.1053 57.2461 16.1053 55.0262V16.5118L9.39474 6.44605L2.68421 16.5118Z" fill="#777777"/>
<path d="M17.4474 53.6842H1.34211C0.599921 53.6842 0 53.0829 0 52.3421C0 51.6013 0.599921 51 1.34211 51H17.4474C18.1896 51 18.7895 51.6013 18.7895 52.3421C18.7895 53.0829 18.1896 53.6842 17.4474 53.6842Z" fill="#777777"/>
<path d="M17.4474 48.3158H1.34211C0.599921 48.3158 0 47.7145 0 46.9737C0 46.2329 0.599921 45.6316 1.34211 45.6316H17.4474C18.1896 45.6316 18.7895 46.2329 18.7895 46.9737C18.7895 47.7145 18.1896 48.3158 17.4474 48.3158Z" fill="#777777"/>
<path d="M6.71051 48.3158C5.96833 48.3158 5.36841 47.7145 5.36841 46.9737V21.4737C5.36841 20.7329 5.96833 20.1316 6.71051 20.1316C7.4527 20.1316 8.05262 20.7329 8.05262 21.4737V46.9737C8.05262 47.7145 7.4527 48.3158 6.71051 48.3158Z" fill="#777777"/>
<path d="M12.0789 48.3158C11.3367 48.3158 10.7368 47.7145 10.7368 46.9737V21.4737C10.7368 20.7329 11.3367 20.1316 12.0789 20.1316C12.8211 20.1316 13.421 20.7329 13.421 21.4737V46.9737C13.421 47.7145 12.8211 48.3158 12.0789 48.3158Z" fill="#777777"/>
<path d="M13.421 9.39478H5.36841V12.079H13.421V9.39478Z" fill="#777777"/>
<path d="M5.36842 22.8158C2.40774 22.8158 0 20.408 0 17.4473C0 16.7065 0.599921 16.1052 1.34211 16.1052C2.08429 16.1052 2.68421 16.7065 2.68421 17.4473C2.68421 18.9277 3.88808 20.1315 5.36842 20.1315C6.84876 20.1315 8.05263 18.9277 8.05263 17.4473C8.05263 16.7065 8.65255 16.1052 9.39474 16.1052C10.1369 16.1052 10.7368 16.7065 10.7368 17.4473C10.7368 20.408 8.32911 22.8158 5.36842 22.8158Z" fill="#777777"/>
<path d="M13.421 22.8158C10.4603 22.8158 8.05261 20.408 8.05261 17.4473C8.05261 16.7065 8.65253 16.1052 9.39472 16.1052C10.1369 16.1052 10.7368 16.7065 10.7368 17.4473C10.7368 18.9277 11.9407 20.1315 13.421 20.1315C14.9014 20.1315 16.1052 18.9277 16.1052 17.4473C16.1052 16.7065 16.7052 16.1052 17.4473 16.1052C18.1895 16.1052 18.7895 16.7065 18.7895 17.4473C18.7895 20.408 16.3817 22.8158 13.421 22.8158Z" fill="#777777"/>
</svg>
