<svg width="52" height="63" viewBox="0 0 52 63" fill="none" xmlns="http://www.w3.org/2000/svg">
<path d="M46.4533 2.1001H4.85327V56.0001H9.7066V60.2001H17.3333V56.0001H33.9733V60.2001H41.5999V56.0001H46.4533V2.1001ZM15.9466 58.8001H11.0933V56.0001H15.9466V58.8001ZM40.2133 58.8001H35.3599V56.0001H40.2133V58.8001ZM45.0666 54.6001H6.23994V3.5001H45.0666V54.6001ZM42.9866 5.6001H8.31994V52.5001H42.9866V5.6001ZM9.7066 7.0001H24.9599V51.1001H9.7066V7.0001ZM41.5999 51.1001H26.3466V7.0001H41.5999V51.1001ZM20.897 24.9691C20.3252 24.9691 19.7662 25.1403 19.2907 25.461C18.8153 25.7818 18.4447 26.2377 18.2259 26.771C18.0071 27.3044 17.9498 27.8913 18.0614 28.4576C18.1729 29.0238 18.4483 29.5439 18.8526 29.9521C19.257 30.3604 19.7721 30.6384 20.333 30.751C20.8938 30.8636 21.4751 30.8058 22.0034 30.5849C22.5317 30.364 22.9833 29.9898 23.3009 29.5098C23.6186 29.0298 23.7882 28.4654 23.7882 27.8881C23.7882 27.5048 23.7134 27.1252 23.5681 26.771C23.4228 26.4169 23.2099 26.0951 22.9414 25.8241C22.6729 25.553 22.3542 25.338 22.0034 25.1913C21.6526 25.0446 21.2767 24.9691 20.897 24.9691ZM20.897 29.4001C20.5994 29.4001 20.3086 29.311 20.0611 29.1441C19.8137 28.9772 19.6209 28.74 19.507 28.4624C19.3931 28.1848 19.3633 27.8794 19.4214 27.5848C19.4794 27.2901 19.6227 27.0194 19.8331 26.807C20.0436 26.5946 20.3116 26.4499 20.6035 26.3913C20.8953 26.3327 21.1978 26.3628 21.4728 26.4777C21.7477 26.5927 21.9827 26.7874 22.148 27.0372C22.3133 27.287 22.4015 27.5807 22.4015 27.8811C22.4015 28.284 22.243 28.6703 21.9609 28.9552C21.6787 29.2401 21.296 29.4001 20.897 29.4001ZM30.2362 30.8001C30.808 30.8001 31.367 30.6289 31.8425 30.3082C32.3179 29.9874 32.6885 29.5315 32.9073 28.9982C33.1262 28.4648 33.1834 27.8779 33.0719 27.3116C32.9603 26.7454 32.6849 26.2253 32.2806 25.8171C31.8763 25.4088 31.3611 25.1308 30.8002 25.0182C30.2394 24.9056 29.6581 24.9634 29.1298 25.1843C28.6015 25.4052 28.15 25.7794 27.8323 26.2594C27.5146 26.7394 27.345 27.3038 27.345 27.8811C27.345 28.6553 27.6496 29.3977 28.1918 29.9451C28.734 30.4926 29.4694 30.8001 30.2362 30.8001ZM30.2362 26.3691C30.5338 26.3691 30.8247 26.4582 31.0721 26.6251C31.3195 26.792 31.5123 27.0292 31.6262 27.3068C31.7401 27.5844 31.7699 27.8898 31.7118 28.1844C31.6538 28.4791 31.5105 28.7498 31.3001 28.9622C31.0897 29.1746 30.8216 29.3193 30.5297 29.3779C30.2379 29.4365 29.9354 29.4064 29.6604 29.2915C29.3855 29.1765 29.1506 28.9818 28.9852 28.732C28.8199 28.4822 28.7317 28.1885 28.7317 27.8881C28.7317 27.6886 28.7706 27.4911 28.8462 27.3068C28.9218 27.1225 29.0326 26.9551 29.1723 26.814C29.312 26.673 29.4779 26.5611 29.6604 26.4847C29.843 26.4084 30.0386 26.3691 30.2362 26.3691Z" fill="#777777"/>
</svg>
