<svg width="85" height="12" viewBox="0 0 85 12" fill="none" xmlns="http://www.w3.org/2000/svg">
<g clip-path="url(#clip0)">
<path d="M2.7661 11.5823C2.4766 11.7308 2.1481 11.4705 2.2066 11.1383L2.8291 7.59076L0.186846 5.07376C-0.0599045 4.83826 0.0683455 4.40776 0.399096 4.36126L4.0726 3.83926L5.7106 0.594009C5.85835 0.301509 6.2581 0.301509 6.40585 0.594009L8.04385 3.83926L11.7173 4.36126C12.0481 4.40776 12.1763 4.83826 11.9296 5.07376L9.28735 7.59076L9.90985 11.1383C9.96835 11.4705 9.63985 11.7308 9.35035 11.5823L6.0571 9.89026L2.76535 11.5823H2.7661Z" fill="#FFCE31"/>
</g>
<g clip-path="url(#clip1)">
<path d="M20.7661 11.5823C20.4766 11.7308 20.1481 11.4705 20.2066 11.1383L20.8291 7.59076L18.1868 5.07376C17.9401 4.83826 18.0683 4.40776 18.3991 4.36126L22.0726 3.83926L23.7106 0.594009C23.8583 0.301509 24.2581 0.301509 24.4058 0.594009L26.0438 3.83926L29.7173 4.36126C30.0481 4.40776 30.1763 4.83826 29.9296 5.07376L27.2873 7.59076L27.9098 11.1383C27.9683 11.4705 27.6398 11.7308 27.3503 11.5823L24.0571 9.89026L20.7653 11.5823H20.7661Z" fill="#FFCE31"/>
</g>
<g clip-path="url(#clip2)">
<path d="M38.7661 11.5823C38.4766 11.7308 38.1481 11.4705 38.2066 11.1383L38.8291 7.59076L36.1868 5.07376C35.9401 4.83826 36.0683 4.40776 36.3991 4.36126L40.0726 3.83926L41.7106 0.594009C41.8583 0.301509 42.2581 0.301509 42.4058 0.594009L44.0438 3.83926L47.7173 4.36126C48.0481 4.40776 48.1763 4.83826 47.9296 5.07376L45.2873 7.59076L45.9098 11.1383C45.9683 11.4705 45.6398 11.7308 45.3503 11.5823L42.0571 9.89026L38.7653 11.5823H38.7661Z" fill="#FFCE31"/>
</g>
<g clip-path="url(#clip3)">
<path d="M56.7661 11.5823C56.4766 11.7308 56.1481 11.4705 56.2066 11.1383L56.8291 7.59076L54.1868 5.07376C53.9401 4.83826 54.0683 4.40776 54.3991 4.36126L58.0726 3.83926L59.7106 0.594009C59.8583 0.301509 60.2581 0.301509 60.4058 0.594009L62.0438 3.83926L65.7173 4.36126C66.0481 4.40776 66.1763 4.83826 65.9296 5.07376L63.2873 7.59076L63.9098 11.1383C63.9683 11.4705 63.6398 11.7308 63.3503 11.5823L60.0571 9.89026L56.7653 11.5823H56.7661Z" fill="#FFCE31"/>
</g>
<g clip-path="url(#clip4)">
<path d="M74.7661 11.5823C74.4766 11.7308 74.1481 11.4705 74.2066 11.1383L74.8291 7.59076L72.1868 5.07376C71.9401 4.83826 72.0683 4.40776 72.3991 4.36126L76.0726 3.83926L77.7106 0.594009C77.8583 0.301509 78.2581 0.301509 78.4058 0.594009L80.0438 3.83926L83.7173 4.36126C84.0481 4.40776 84.1763 4.83826 83.9296 5.07376L81.2873 7.59076L81.9098 11.1383C81.9683 11.4705 81.6398 11.7308 81.3503 11.5823L78.0571 9.89026L74.7653 11.5823H74.7661Z" fill="#FFCE31"/>
</g>
<defs>
<clipPath id="clip0">
<rect width="12" height="12" fill="white" transform="translate(0.0571289)"/>
</clipPath>
<clipPath id="clip1">
<rect width="12" height="12" fill="white" transform="translate(18.0571)"/>
</clipPath>
<clipPath id="clip2">
<rect width="12" height="12" fill="white" transform="translate(36.0571)"/>
</clipPath>
<clipPath id="clip3">
<rect width="12" height="12" fill="white" transform="translate(54.0571)"/>
</clipPath>
<clipPath id="clip4">
<rect width="12" height="12" fill="white" transform="translate(72.0571)"/>
</clipPath>
</defs>
</svg>
